<svg width="1441" height="500" viewBox="0 0 1441 500" fill="none" xmlns="http://www.w3.org/2000/svg">
<line x1="0.25" y1="1.09278e-08" x2="0.249978" y2="500" stroke="#0096C7" stroke-width="0.5"/>
<line x1="6.25" y1="1.09278e-08" x2="6.24998" y2="500" stroke="#0096C7" stroke-width="0.5"/>
<line x1="12.25" y1="1.09278e-08" x2="12.25" y2="500" stroke="#0096C7" stroke-width="0.5"/>
<line x1="18.25" y1="1.09278e-08" x2="18.25" y2="500" stroke="#0096C7" stroke-width="0.5"/>
<line x1="24.25" y1="1.09278e-08" x2="24.25" y2="500" stroke="#0096C7" stroke-width="0.5"/>
<line x1="30.25" y1="1.09278e-08" x2="30.25" y2="500" stroke="#0096C7" stroke-width="0.5"/>
<line x1="36.25" y1="1.09278e-08" x2="36.25" y2="500" stroke="#0096C7" stroke-width="0.5"/>
<line x1="42.25" y1="1.09278e-08" x2="42.25" y2="500" stroke="#0096C7" stroke-width="0.5"/>
<line x1="48.25" y1="1.09278e-08" x2="48.25" y2="500" stroke="#0096C7" stroke-width="0.5"/>
<line x1="54.25" y1="1.09278e-08" x2="54.25" y2="500" stroke="#0096C7" stroke-width="0.5"/>
<line x1="60.25" y1="1.09278e-08" x2="60.25" y2="500" stroke="#0096C7" stroke-width="0.5"/>
<line x1="66.2505" y1="1.09278e-08" x2="66.2505" y2="500" stroke="#0096C7" stroke-width="0.5"/>
<line x1="72.2505" y1="1.09278e-08" x2="72.2505" y2="500" stroke="#0096C7" stroke-width="0.5"/>
<line x1="78.2505" y1="1.09278e-08" x2="78.2505" y2="500" stroke="#0096C7" stroke-width="0.5"/>
<line x1="84.2505" y1="1.09278e-08" x2="84.2505" y2="500" stroke="#0096C7" stroke-width="0.5"/>
<line x1="90.2505" y1="1.09278e-08" x2="90.2505" y2="500" stroke="#0096C7" stroke-width="0.5"/>
<line x1="96.2505" y1="1.09278e-08" x2="96.2505" y2="500" stroke="#0096C7" stroke-width="0.5"/>
<line x1="102.25" y1="1.09278e-08" x2="102.25" y2="500" stroke="#0096C7" stroke-width="0.5"/>
<line x1="108.25" y1="1.09278e-08" x2="108.25" y2="500" stroke="#0096C7" stroke-width="0.5"/>
<line x1="114.25" y1="1.09278e-08" x2="114.25" y2="500" stroke="#0096C7" stroke-width="0.5"/>
<line x1="120.25" y1="1.09278e-08" x2="120.25" y2="500" stroke="#0096C7" stroke-width="0.5"/>
<line x1="126.25" y1="1.09278e-08" x2="126.25" y2="500" stroke="#0096C7" stroke-width="0.5"/>
<line x1="132.25" y1="1.09278e-08" x2="132.25" y2="500" stroke="#0096C7" stroke-width="0.5"/>
<line x1="138.25" y1="1.09278e-08" x2="138.25" y2="500" stroke="#0096C7" stroke-width="0.5"/>
<line x1="144.25" y1="1.09278e-08" x2="144.25" y2="500" stroke="#0096C7" stroke-width="0.5"/>
<line x1="150.25" y1="1.09278e-08" x2="150.25" y2="500" stroke="#0096C7" stroke-width="0.5"/>
<line x1="156.25" y1="1.09278e-08" x2="156.25" y2="500" stroke="#0096C7" stroke-width="0.5"/>
<line x1="162.25" y1="1.09278e-08" x2="162.25" y2="500" stroke="#0096C7" stroke-width="0.5"/>
<line x1="168.25" y1="1.09278e-08" x2="168.25" y2="500" stroke="#0096C7" stroke-width="0.5"/>
<line x1="174.25" y1="1.09278e-08" x2="174.25" y2="500" stroke="#0096C7" stroke-width="0.5"/>
<line x1="180.25" y1="1.09278e-08" x2="180.25" y2="500" stroke="#0096C7" stroke-width="0.5"/>
<line x1="186.25" y1="1.09278e-08" x2="186.25" y2="500" stroke="#0096C7" stroke-width="0.5"/>
<line x1="192.25" y1="1.09278e-08" x2="192.25" y2="500" stroke="#0096C7" stroke-width="0.5"/>
<line x1="198.25" y1="1.09278e-08" x2="198.25" y2="500" stroke="#0096C7" stroke-width="0.5"/>
<line x1="204.25" y1="1.09278e-08" x2="204.25" y2="500" stroke="#0096C7" stroke-width="0.5"/>
<line x1="210.25" y1="1.09278e-08" x2="210.25" y2="500" stroke="#0096C7" stroke-width="0.5"/>
<line x1="216.251" y1="1.09278e-08" x2="216.251" y2="500" stroke="#0096C7" stroke-width="0.5"/>
<line x1="222.251" y1="1.09278e-08" x2="222.251" y2="500" stroke="#0096C7" stroke-width="0.5"/>
<line x1="228.251" y1="1.09278e-08" x2="228.251" y2="500" stroke="#0096C7" stroke-width="0.5"/>
<line x1="234.251" y1="1.09278e-08" x2="234.251" y2="500" stroke="#0096C7" stroke-width="0.5"/>
<line x1="240.251" y1="1.09278e-08" x2="240.251" y2="500" stroke="#0096C7" stroke-width="0.5"/>
<line x1="246.251" y1="1.09278e-08" x2="246.251" y2="500" stroke="#0096C7" stroke-width="0.5"/>
<line x1="252.251" y1="1.09278e-08" x2="252.251" y2="500" stroke="#0096C7" stroke-width="0.5"/>
<line x1="258.251" y1="1.09278e-08" x2="258.251" y2="500" stroke="#0096C7" stroke-width="0.5"/>
<line x1="264.251" y1="1.09278e-08" x2="264.251" y2="500" stroke="#0096C7" stroke-width="0.5"/>
<line x1="270.251" y1="1.09278e-08" x2="270.251" y2="500" stroke="#0096C7" stroke-width="0.5"/>
<line x1="276.251" y1="1.09278e-08" x2="276.251" y2="500" stroke="#0096C7" stroke-width="0.5"/>
<line x1="282.251" y1="1.09278e-08" x2="282.251" y2="500" stroke="#0096C7" stroke-width="0.5"/>
<line x1="288.251" y1="1.09278e-08" x2="288.251" y2="500" stroke="#0096C7" stroke-width="0.5"/>
<line x1="294.251" y1="1.09278e-08" x2="294.251" y2="500" stroke="#0096C7" stroke-width="0.5"/>
<line x1="300.251" y1="1.09278e-08" x2="300.251" y2="500" stroke="#0096C7" stroke-width="0.5"/>
<line x1="306.251" y1="1.09278e-08" x2="306.251" y2="500" stroke="#0096C7" stroke-width="0.5"/>
<line x1="312.251" y1="1.09278e-08" x2="312.251" y2="500" stroke="#0096C7" stroke-width="0.5"/>
<line x1="318.251" y1="1.09278e-08" x2="318.251" y2="500" stroke="#0096C7" stroke-width="0.5"/>
<line x1="324.251" y1="1.09278e-08" x2="324.251" y2="500" stroke="#0096C7" stroke-width="0.5"/>
<line x1="330.251" y1="1.09278e-08" x2="330.251" y2="500" stroke="#0096C7" stroke-width="0.5"/>
<line x1="336.251" y1="1.09278e-08" x2="336.251" y2="500" stroke="#0096C7" stroke-width="0.5"/>
<line x1="342.251" y1="1.09278e-08" x2="342.251" y2="500" stroke="#0096C7" stroke-width="0.5"/>
<line x1="348.251" y1="1.09278e-08" x2="348.251" y2="500" stroke="#0096C7" stroke-width="0.5"/>
<line x1="354.251" y1="1.09278e-08" x2="354.251" y2="500" stroke="#0096C7" stroke-width="0.5"/>
<line x1="360.251" y1="1.09278e-08" x2="360.251" y2="500" stroke="#0096C7" stroke-width="0.5"/>
<line x1="366.251" y1="1.09278e-08" x2="366.251" y2="500" stroke="#0096C7" stroke-width="0.5"/>
<line x1="372.251" y1="1.09278e-08" x2="372.251" y2="500" stroke="#0096C7" stroke-width="0.5"/>
<line x1="378.251" y1="1.09278e-08" x2="378.251" y2="500" stroke="#0096C7" stroke-width="0.5"/>
<line x1="384.251" y1="1.09278e-08" x2="384.251" y2="500" stroke="#0096C7" stroke-width="0.5"/>
<line x1="390.251" y1="1.09278e-08" x2="390.251" y2="500" stroke="#0096C7" stroke-width="0.5"/>
<line x1="396.251" y1="1.09278e-08" x2="396.251" y2="500" stroke="#0096C7" stroke-width="0.5"/>
<line x1="402.251" y1="1.09278e-08" x2="402.251" y2="500" stroke="#0096C7" stroke-width="0.5"/>
<line x1="408.251" y1="1.09278e-08" x2="408.251" y2="500" stroke="#0096C7" stroke-width="0.5"/>
<line x1="414.251" y1="1.09278e-08" x2="414.251" y2="500" stroke="#0096C7" stroke-width="0.5"/>
<line x1="420.251" y1="1.09278e-08" x2="420.251" y2="500" stroke="#0096C7" stroke-width="0.5"/>
<line x1="426.252" y1="1.09278e-08" x2="426.252" y2="500" stroke="#0096C7" stroke-width="0.5"/>
<line x1="432.252" y1="1.09278e-08" x2="432.252" y2="500" stroke="#0096C7" stroke-width="0.5"/>
<line x1="438.252" y1="1.09278e-08" x2="438.252" y2="500" stroke="#0096C7" stroke-width="0.5"/>
<line x1="444.252" y1="1.09278e-08" x2="444.252" y2="500" stroke="#0096C7" stroke-width="0.5"/>
<line x1="450.252" y1="1.09278e-08" x2="450.252" y2="500" stroke="#0096C7" stroke-width="0.5"/>
<line x1="456.252" y1="1.09278e-08" x2="456.252" y2="500" stroke="#0096C7" stroke-width="0.5"/>
<line x1="462.252" y1="1.09278e-08" x2="462.252" y2="500" stroke="#0096C7" stroke-width="0.5"/>
<line x1="468.252" y1="1.09278e-08" x2="468.252" y2="500" stroke="#0096C7" stroke-width="0.5"/>
<line x1="474.252" y1="1.09278e-08" x2="474.252" y2="500" stroke="#0096C7" stroke-width="0.5"/>
<line x1="480.252" y1="1.09278e-08" x2="480.252" y2="500" stroke="#0096C7" stroke-width="0.5"/>
<line x1="486.252" y1="1.09278e-08" x2="486.252" y2="500" stroke="#0096C7" stroke-width="0.5"/>
<line x1="492.252" y1="1.09278e-08" x2="492.252" y2="500" stroke="#0096C7" stroke-width="0.5"/>
<line x1="498.252" y1="1.09278e-08" x2="498.252" y2="500" stroke="#0096C7" stroke-width="0.5"/>
<line x1="504.252" y1="1.09278e-08" x2="504.252" y2="500" stroke="#0096C7" stroke-width="0.5"/>
<line x1="510.252" y1="1.09278e-08" x2="510.252" y2="500" stroke="#0096C7" stroke-width="0.5"/>
<line x1="516.252" y1="1.09278e-08" x2="516.252" y2="500" stroke="#0096C7" stroke-width="0.5"/>
<line x1="522.252" y1="1.09278e-08" x2="522.252" y2="500" stroke="#0096C7" stroke-width="0.5"/>
<line x1="528.252" y1="1.09278e-08" x2="528.252" y2="500" stroke="#0096C7" stroke-width="0.5"/>
<line x1="534.252" y1="1.09278e-08" x2="534.252" y2="500" stroke="#0096C7" stroke-width="0.5"/>
<line x1="540.252" y1="1.09278e-08" x2="540.252" y2="500" stroke="#0096C7" stroke-width="0.5"/>
<line x1="546.252" y1="1.09278e-08" x2="546.252" y2="500" stroke="#0096C7" stroke-width="0.5"/>
<line x1="552.252" y1="1.09278e-08" x2="552.252" y2="500" stroke="#0096C7" stroke-width="0.5"/>
<line x1="558.252" y1="1.09278e-08" x2="558.252" y2="500" stroke="#0096C7" stroke-width="0.5"/>
<line x1="564.252" y1="1.09278e-08" x2="564.252" y2="500" stroke="#0096C7" stroke-width="0.5"/>
<line x1="570.252" y1="1.09278e-08" x2="570.252" y2="500" stroke="#0096C7" stroke-width="0.5"/>
<line x1="576.252" y1="1.09278e-08" x2="576.252" y2="500" stroke="#0096C7" stroke-width="0.5"/>
<line x1="582.252" y1="1.09278e-08" x2="582.252" y2="500" stroke="#0096C7" stroke-width="0.5"/>
<line x1="588.252" y1="1.09278e-08" x2="588.252" y2="500" stroke="#0096C7" stroke-width="0.5"/>
<line x1="594.252" y1="1.09278e-08" x2="594.252" y2="500" stroke="#0096C7" stroke-width="0.5"/>
<line x1="600.252" y1="1.09278e-08" x2="600.252" y2="500" stroke="#0096C7" stroke-width="0.5"/>
<line x1="606.252" y1="1.09278e-08" x2="606.252" y2="500" stroke="#0096C7" stroke-width="0.5"/>
<line x1="612.252" y1="1.09278e-08" x2="612.252" y2="500" stroke="#0096C7" stroke-width="0.5"/>
<line x1="618.252" y1="1.09278e-08" x2="618.252" y2="500" stroke="#0096C7" stroke-width="0.5"/>
<line x1="624.252" y1="1.09278e-08" x2="624.252" y2="500" stroke="#0096C7" stroke-width="0.5"/>
<line x1="630.252" y1="1.09278e-08" x2="630.252" y2="500" stroke="#0096C7" stroke-width="0.5"/>
<line x1="636.252" y1="1.09278e-08" x2="636.252" y2="500" stroke="#0096C7" stroke-width="0.5"/>
<line x1="642.252" y1="1.09278e-08" x2="642.252" y2="500" stroke="#0096C7" stroke-width="0.5"/>
<line x1="648.252" y1="1.09278e-08" x2="648.252" y2="500" stroke="#0096C7" stroke-width="0.5"/>
<line x1="654.252" y1="1.09278e-08" x2="654.252" y2="500" stroke="#0096C7" stroke-width="0.5"/>
<line x1="660.252" y1="1.09278e-08" x2="660.252" y2="500" stroke="#0096C7" stroke-width="0.5"/>
<line x1="666.252" y1="1.09278e-08" x2="666.252" y2="500" stroke="#0096C7" stroke-width="0.5"/>
<line x1="672.252" y1="1.09278e-08" x2="672.252" y2="500" stroke="#0096C7" stroke-width="0.5"/>
<line x1="678.252" y1="1.09278e-08" x2="678.252" y2="500" stroke="#0096C7" stroke-width="0.5"/>
<line x1="684.252" y1="1.09278e-08" x2="684.252" y2="500" stroke="#0096C7" stroke-width="0.5"/>
<line x1="690.252" y1="1.09278e-08" x2="690.252" y2="500" stroke="#0096C7" stroke-width="0.5"/>
<line x1="696.252" y1="1.09278e-08" x2="696.252" y2="500" stroke="#0096C7" stroke-width="0.5"/>
<line x1="702.252" y1="1.09278e-08" x2="702.252" y2="500" stroke="#0096C7" stroke-width="0.5"/>
<line x1="708.252" y1="1.09278e-08" x2="708.252" y2="500" stroke="#0096C7" stroke-width="0.5"/>
<line x1="714.252" y1="1.09278e-08" x2="714.252" y2="500" stroke="#0096C7" stroke-width="0.5"/>
<line x1="720.252" y1="1.09278e-08" x2="720.252" y2="500" stroke="#0096C7" stroke-width="0.5"/>
<line x1="726.252" y1="1.09278e-08" x2="726.252" y2="500" stroke="#0096C7" stroke-width="0.5"/>
<line x1="732.252" y1="1.09278e-08" x2="732.252" y2="500" stroke="#0096C7" stroke-width="0.5"/>
<line x1="738.252" y1="1.09278e-08" x2="738.252" y2="500" stroke="#0096C7" stroke-width="0.5"/>
<line x1="744.252" y1="1.09278e-08" x2="744.252" y2="500" stroke="#0096C7" stroke-width="0.5"/>
<line x1="750.252" y1="1.09278e-08" x2="750.252" y2="500" stroke="#0096C7" stroke-width="0.5"/>
<line x1="756.252" y1="1.09278e-08" x2="756.252" y2="500" stroke="#0096C7" stroke-width="0.5"/>
<line x1="762.252" y1="1.09278e-08" x2="762.252" y2="500" stroke="#0096C7" stroke-width="0.5"/>
<line x1="768.252" y1="1.09278e-08" x2="768.252" y2="500" stroke="#0096C7" stroke-width="0.5"/>
<line x1="774.252" y1="1.09278e-08" x2="774.252" y2="500" stroke="#0096C7" stroke-width="0.5"/>
<line x1="780.252" y1="1.09278e-08" x2="780.252" y2="500" stroke="#0096C7" stroke-width="0.5"/>
<line x1="786.252" y1="1.09278e-08" x2="786.252" y2="500" stroke="#0096C7" stroke-width="0.5"/>
<line x1="792.252" y1="1.09278e-08" x2="792.252" y2="500" stroke="#0096C7" stroke-width="0.5"/>
<line x1="798.252" y1="1.09278e-08" x2="798.252" y2="500" stroke="#0096C7" stroke-width="0.5"/>
<line x1="804.252" y1="1.09278e-08" x2="804.252" y2="500" stroke="#0096C7" stroke-width="0.5"/>
<line x1="810.252" y1="1.09278e-08" x2="810.252" y2="500" stroke="#0096C7" stroke-width="0.5"/>
<line x1="816.252" y1="1.09278e-08" x2="816.252" y2="500" stroke="#0096C7" stroke-width="0.5"/>
<line x1="822.252" y1="1.09278e-08" x2="822.252" y2="500" stroke="#0096C7" stroke-width="0.5"/>
<line x1="828.252" y1="1.09278e-08" x2="828.252" y2="500" stroke="#0096C7" stroke-width="0.5"/>
<line x1="834.252" y1="1.09278e-08" x2="834.252" y2="500" stroke="#0096C7" stroke-width="0.5"/>
<line x1="840.252" y1="1.09278e-08" x2="840.252" y2="500" stroke="#0096C7" stroke-width="0.5"/>
<line x1="846.252" y1="1.09278e-08" x2="846.252" y2="500" stroke="#0096C7" stroke-width="0.5"/>
<line x1="852.252" y1="1.09278e-08" x2="852.252" y2="500" stroke="#0096C7" stroke-width="0.5"/>
<line x1="858.252" y1="1.09278e-08" x2="858.252" y2="500" stroke="#0096C7" stroke-width="0.5"/>
<line x1="864.252" y1="1.09278e-08" x2="864.252" y2="500" stroke="#0096C7" stroke-width="0.5"/>
<line x1="870.252" y1="1.09278e-08" x2="870.252" y2="500" stroke="#0096C7" stroke-width="0.5"/>
<line x1="876.252" y1="1.09278e-08" x2="876.252" y2="500" stroke="#0096C7" stroke-width="0.5"/>
<line x1="882.252" y1="1.09278e-08" x2="882.252" y2="500" stroke="#0096C7" stroke-width="0.5"/>
<line x1="888.252" y1="1.09278e-08" x2="888.252" y2="500" stroke="#0096C7" stroke-width="0.5"/>
<line x1="894.252" y1="1.09278e-08" x2="894.252" y2="500" stroke="#0096C7" stroke-width="0.5"/>
<line x1="900.252" y1="1.09278e-08" x2="900.252" y2="500" stroke="#0096C7" stroke-width="0.5"/>
<line x1="906.252" y1="1.09278e-08" x2="906.252" y2="500" stroke="#0096C7" stroke-width="0.5"/>
<line x1="912.252" y1="1.09278e-08" x2="912.252" y2="500" stroke="#0096C7" stroke-width="0.5"/>
<line x1="918.252" y1="1.09278e-08" x2="918.252" y2="500" stroke="#0096C7" stroke-width="0.5"/>
<line x1="924.252" y1="1.09278e-08" x2="924.252" y2="500" stroke="#0096C7" stroke-width="0.5"/>
<line x1="930.252" y1="1.09278e-08" x2="930.252" y2="500" stroke="#0096C7" stroke-width="0.5"/>
<line x1="936.252" y1="1.09278e-08" x2="936.252" y2="500" stroke="#0096C7" stroke-width="0.5"/>
<line x1="942.252" y1="1.09278e-08" x2="942.252" y2="500" stroke="#0096C7" stroke-width="0.5"/>
<line x1="948.252" y1="1.09278e-08" x2="948.252" y2="500" stroke="#0096C7" stroke-width="0.5"/>
<line x1="954.252" y1="1.09278e-08" x2="954.252" y2="500" stroke="#0096C7" stroke-width="0.5"/>
<line x1="960.252" y1="1.09278e-08" x2="960.252" y2="500" stroke="#0096C7" stroke-width="0.5"/>
<line x1="966.252" y1="1.09278e-08" x2="966.252" y2="500" stroke="#0096C7" stroke-width="0.5"/>
<line x1="972.252" y1="1.09278e-08" x2="972.252" y2="500" stroke="#0096C7" stroke-width="0.5"/>
<line x1="978.252" y1="1.09278e-08" x2="978.252" y2="500" stroke="#0096C7" stroke-width="0.5"/>
<line x1="984.252" y1="1.09278e-08" x2="984.252" y2="500" stroke="#0096C7" stroke-width="0.5"/>
<line x1="990.252" y1="1.09278e-08" x2="990.252" y2="500" stroke="#0096C7" stroke-width="0.5"/>
<line x1="996.252" y1="1.09278e-08" x2="996.252" y2="500" stroke="#0096C7" stroke-width="0.5"/>
<line x1="1002.25" y1="1.09278e-08" x2="1002.25" y2="500" stroke="#0096C7" stroke-width="0.5"/>
<line x1="1008.25" y1="1.09278e-08" x2="1008.25" y2="500" stroke="#0096C7" stroke-width="0.5"/>
<line x1="1014.25" y1="1.09278e-08" x2="1014.25" y2="500" stroke="#0096C7" stroke-width="0.5"/>
<line x1="1020.25" y1="1.09278e-08" x2="1020.25" y2="500" stroke="#0096C7" stroke-width="0.5"/>
<line x1="1026.25" y1="1.09278e-08" x2="1026.25" y2="500" stroke="#0096C7" stroke-width="0.5"/>
<line x1="1032.25" y1="1.09278e-08" x2="1032.25" y2="500" stroke="#0096C7" stroke-width="0.5"/>
<line x1="1038.25" y1="1.09278e-08" x2="1038.25" y2="500" stroke="#0096C7" stroke-width="0.5"/>
<line x1="1044.25" y1="1.09278e-08" x2="1044.25" y2="500" stroke="#0096C7" stroke-width="0.5"/>
<line x1="1050.25" y1="1.09278e-08" x2="1050.25" y2="500" stroke="#0096C7" stroke-width="0.5"/>
<line x1="1056.25" y1="1.09278e-08" x2="1056.25" y2="500" stroke="#0096C7" stroke-width="0.5"/>
<line x1="1062.25" y1="1.09278e-08" x2="1062.25" y2="500" stroke="#0096C7" stroke-width="0.5"/>
<line x1="1068.25" y1="1.09278e-08" x2="1068.25" y2="500" stroke="#0096C7" stroke-width="0.5"/>
<line x1="1074.25" y1="1.09278e-08" x2="1074.25" y2="500" stroke="#0096C7" stroke-width="0.5"/>
<line x1="1080.25" y1="1.09278e-08" x2="1080.25" y2="500" stroke="#0096C7" stroke-width="0.5"/>
<line x1="1086.25" y1="1.09278e-08" x2="1086.25" y2="500" stroke="#0096C7" stroke-width="0.5"/>
<line x1="1092.25" y1="1.09278e-08" x2="1092.25" y2="500" stroke="#0096C7" stroke-width="0.5"/>
<line x1="1098.25" y1="1.09278e-08" x2="1098.25" y2="500" stroke="#0096C7" stroke-width="0.5"/>
<line x1="1104.25" y1="1.09278e-08" x2="1104.25" y2="500" stroke="#0096C7" stroke-width="0.5"/>
<line x1="1110.25" y1="1.09278e-08" x2="1110.25" y2="500" stroke="#0096C7" stroke-width="0.5"/>
<line x1="1116.25" y1="1.09278e-08" x2="1116.25" y2="500" stroke="#0096C7" stroke-width="0.5"/>
<line x1="1122.25" y1="1.09278e-08" x2="1122.25" y2="500" stroke="#0096C7" stroke-width="0.5"/>
<line x1="1128.25" y1="1.09278e-08" x2="1128.25" y2="500" stroke="#0096C7" stroke-width="0.5"/>
<line x1="1134.25" y1="1.09278e-08" x2="1134.25" y2="500" stroke="#0096C7" stroke-width="0.5"/>
<line x1="1140.25" y1="1.09278e-08" x2="1140.25" y2="500" stroke="#0096C7" stroke-width="0.5"/>
<line x1="1146.25" y1="1.09278e-08" x2="1146.25" y2="500" stroke="#0096C7" stroke-width="0.5"/>
<line x1="1152.25" y1="1.09278e-08" x2="1152.25" y2="500" stroke="#0096C7" stroke-width="0.5"/>
<line x1="1158.25" y1="1.09278e-08" x2="1158.25" y2="500" stroke="#0096C7" stroke-width="0.5"/>
<line x1="1164.25" y1="1.09278e-08" x2="1164.25" y2="500" stroke="#0096C7" stroke-width="0.5"/>
<line x1="1170.25" y1="1.09278e-08" x2="1170.25" y2="500" stroke="#0096C7" stroke-width="0.5"/>
<line x1="1176.25" y1="1.09278e-08" x2="1176.25" y2="500" stroke="#0096C7" stroke-width="0.5"/>
<line x1="1182.25" y1="1.09278e-08" x2="1182.25" y2="500" stroke="#0096C7" stroke-width="0.5"/>
<line x1="1188.25" y1="1.09278e-08" x2="1188.25" y2="500" stroke="#0096C7" stroke-width="0.5"/>
<line x1="1194.25" y1="1.09278e-08" x2="1194.25" y2="500" stroke="#0096C7" stroke-width="0.5"/>
<line x1="1200.25" y1="1.09278e-08" x2="1200.25" y2="500" stroke="#0096C7" stroke-width="0.5"/>
<line x1="1206.25" y1="1.09278e-08" x2="1206.25" y2="500" stroke="#0096C7" stroke-width="0.5"/>
<line x1="1212.25" y1="1.09278e-08" x2="1212.25" y2="500" stroke="#0096C7" stroke-width="0.5"/>
<line x1="1218.25" y1="1.09278e-08" x2="1218.25" y2="500" stroke="#0096C7" stroke-width="0.5"/>
<line x1="1224.25" y1="1.09278e-08" x2="1224.25" y2="500" stroke="#0096C7" stroke-width="0.5"/>
<line x1="1230.25" y1="1.09278e-08" x2="1230.25" y2="500" stroke="#0096C7" stroke-width="0.5"/>
<line x1="1236.25" y1="1.09278e-08" x2="1236.25" y2="500" stroke="#0096C7" stroke-width="0.5"/>
<line x1="1242.25" y1="1.09278e-08" x2="1242.25" y2="500" stroke="#0096C7" stroke-width="0.5"/>
<line x1="1248.25" y1="1.09278e-08" x2="1248.25" y2="500" stroke="#0096C7" stroke-width="0.5"/>
<line x1="1254.25" y1="1.09278e-08" x2="1254.25" y2="500" stroke="#0096C7" stroke-width="0.5"/>
<line x1="1260.25" y1="1.09278e-08" x2="1260.25" y2="500" stroke="#0096C7" stroke-width="0.5"/>
<line x1="1266.25" y1="1.09278e-08" x2="1266.25" y2="500" stroke="#0096C7" stroke-width="0.5"/>
<line x1="1272.25" y1="1.09278e-08" x2="1272.25" y2="500" stroke="#0096C7" stroke-width="0.5"/>
<line x1="1278.25" y1="1.09278e-08" x2="1278.25" y2="500" stroke="#0096C7" stroke-width="0.5"/>
<line x1="1284.25" y1="1.09278e-08" x2="1284.25" y2="500" stroke="#0096C7" stroke-width="0.5"/>
<line x1="1290.25" y1="1.09278e-08" x2="1290.25" y2="500" stroke="#0096C7" stroke-width="0.5"/>
<line x1="1296.25" y1="1.09278e-08" x2="1296.25" y2="500" stroke="#0096C7" stroke-width="0.5"/>
<line x1="1302.25" y1="1.09278e-08" x2="1302.25" y2="500" stroke="#0096C7" stroke-width="0.5"/>
<line x1="1308.25" y1="1.09278e-08" x2="1308.25" y2="500" stroke="#0096C7" stroke-width="0.5"/>
<line x1="1314.25" y1="1.09278e-08" x2="1314.25" y2="500" stroke="#0096C7" stroke-width="0.5"/>
<line x1="1320.25" y1="1.09278e-08" x2="1320.25" y2="500" stroke="#0096C7" stroke-width="0.5"/>
<line x1="1326.25" y1="1.09278e-08" x2="1326.25" y2="500" stroke="#0096C7" stroke-width="0.5"/>
<line x1="1332.25" y1="1.09278e-08" x2="1332.25" y2="500" stroke="#0096C7" stroke-width="0.5"/>
<line x1="1338.25" y1="1.09278e-08" x2="1338.25" y2="500" stroke="#0096C7" stroke-width="0.5"/>
<line x1="1344.25" y1="1.09278e-08" x2="1344.25" y2="500" stroke="#0096C7" stroke-width="0.5"/>
<line x1="1350.25" y1="1.09278e-08" x2="1350.25" y2="500" stroke="#0096C7" stroke-width="0.5"/>
<line x1="1356.25" y1="1.09278e-08" x2="1356.25" y2="500" stroke="#0096C7" stroke-width="0.5"/>
<line x1="1362.25" y1="1.09278e-08" x2="1362.25" y2="500" stroke="#0096C7" stroke-width="0.5"/>
<line x1="1368.25" y1="1.09278e-08" x2="1368.25" y2="500" stroke="#0096C7" stroke-width="0.5"/>
<line x1="1374.25" y1="1.09278e-08" x2="1374.25" y2="500" stroke="#0096C7" stroke-width="0.5"/>
<line x1="1380.25" y1="1.09278e-08" x2="1380.25" y2="500" stroke="#0096C7" stroke-width="0.5"/>
<line x1="1386.25" y1="1.09278e-08" x2="1386.25" y2="500" stroke="#0096C7" stroke-width="0.5"/>
<line x1="1392.25" y1="1.09278e-08" x2="1392.25" y2="500" stroke="#0096C7" stroke-width="0.5"/>
<line x1="1398.25" y1="1.09278e-08" x2="1398.25" y2="500" stroke="#0096C7" stroke-width="0.5"/>
<line x1="1404.25" y1="1.09278e-08" x2="1404.25" y2="500" stroke="#0096C7" stroke-width="0.5"/>
<line x1="1410.25" y1="1.09278e-08" x2="1410.25" y2="500" stroke="#0096C7" stroke-width="0.5"/>
<line x1="1416.25" y1="1.09278e-08" x2="1416.25" y2="500" stroke="#0096C7" stroke-width="0.5"/>
<line x1="1422.25" y1="1.09278e-08" x2="1422.25" y2="500" stroke="#0096C7" stroke-width="0.5"/>
<line x1="1428.25" y1="1.09278e-08" x2="1428.25" y2="500" stroke="#0096C7" stroke-width="0.5"/>
<line x1="1434.25" y1="1.09278e-08" x2="1434.25" y2="500" stroke="#0096C7" stroke-width="0.5"/>
<line x1="1440.25" y1="1.09278e-08" x2="1440.25" y2="500" stroke="#0096C7" stroke-width="0.5"/>
</svg>
