<svg width="45" height="46" viewBox="0 0 45 46" fill="none" xmlns="http://www.w3.org/2000/svg">
<path d="M22.3839 22.1585C15.9886 22.1585 9.5932 22.1024 3.25599 22.2146C0.639714 22.2707 -0.174239 21.3732 0.174598 18.8488C1.91878 8.07804 11.2792 0.112184 22.442 -1.15621e-05C33.4886 -0.112207 42.9653 7.79755 44.7676 18.6244C45.2909 21.7658 45.0002 22.1585 41.5118 22.1585C35.1746 22.2146 28.7793 22.1585 22.3839 22.1585Z" fill="white"/>
<path d="M22.5001 46C11.221 45.8878 1.56986 37.6975 0.17451 26.9268C9.10312e-05 25.8049 -0.523165 24.2341 1.27916 23.8975C3.37218 23.561 3.19777 25.2439 3.43032 26.478C5.05823 36.0146 12.5001 42.4658 21.9768 42.6902C32.035 42.8585 39.4768 36.9683 41.5699 27.0951C41.6861 26.5341 41.8024 25.9731 41.8606 25.4683C41.9768 24.4585 42.442 23.8975 43.5466 23.9536C44.8257 24.0658 45.1745 24.9073 45.0001 25.917C44.5931 27.9366 44.3024 30.0122 43.6047 31.9195C40.5233 40.1097 31.5117 46.1122 22.5001 46Z" fill="white"/>
<path d="M22.6744 40.6707C14.3604 40.7268 6.62788 34.4439 5.87207 26.8707C5.75579 25.8049 4.99998 24.2341 6.97672 23.9537C8.77905 23.6732 8.83719 25.0756 9.12788 26.3097C10.4651 33.1537 15.8139 37.5854 22.5581 37.4732C29.2442 37.4171 34.7674 32.761 36.0465 26.1415C36.279 25.0195 36.3372 23.7293 37.9651 23.8976C39.8837 24.1219 39.3604 25.6927 39.2442 26.7585C38.3139 34.3878 30.8721 40.6146 22.6744 40.6707Z" fill="white"/>
</svg>
